<?xml version="1.0"?>
<svg xmlns="http://www.w3.org/2000/svg" width="150" height="53">
  <path d="M4.94 10.76c.08-.04.16-.16.24-.36.08-.2.08-.36 0-.48-.04.2-.1.37-.18.51-.08.14-.1.25-.06.33zm-.417 35.377c.005.022.014.04.027.053.02.02.03.05.03.09 0-.04.04-.06.12-.06 0 .12-.02.23-.06.33-.04.1-.02.21.06.33-.08.44-.02.76.18.96.04-.2.05-.38.03-.54-.02-.16.01-.34.09-.54-.08-.08-.12-.23-.12-.45s.04-.41.12-.57c0 .24.02.36.06.36.04-.08.04-.14 0-.18-.04-.04-.02-.1.06-.18.08 0 .09.05.03.15-.06.1-.05.15.03.15 0-.08.02-.2.06-.36.08.04.17.03.27-.03s.17-.05.21.03l.42-6.6c0 .04-.01.06-.03.06-.02 0-.03-.02-.03-.06l.06-.06c.08-.12.13-.32.15-.6.02-.28.01-.52-.03-.72-.04.04-.06.08-.06.12 0-.24.01-.45.03-.63.02-.18.05-.35.09-.51v.3l.18-.48c-.04.8-.08 1.66-.12 2.58-.04.92-.04 1.78 0 2.58.12-.92.17-1.8.15-2.64-.02-.84.01-1.68.09-2.52.04-.36.07-.77.09-1.23.02-.46.07-.89.15-1.29.2-.88.35-1.81.45-2.79.1-.98.19-1.93.27-2.85.16-.64.33-1.37.51-2.19.18-.82.36-1.68.54-2.58.18-.9.38-1.78.6-2.64.22-.86.43-1.65.63-2.37.2-.92.39-1.8.57-2.64.18-.84.39-1.7.63-2.58l1.38-6.3c.12-.36.21-.7.27-1.02.06-.32.03-.62-.09-.9.12 0 .2-.06.24-.18.04-.12.12-.22.24-.3.08-.64.04-.99-.12-1.05-.16-.06-.33-.04-.51.06s-.3.18-.36.24.07-.13.39-.57a.624.624 0 01.03-.42c.06-.16.11-.34.15-.54-.16.2-.26.4-.3.6-.04.2-.16.34-.36.42.08-.08.1-.14.06-.18-.04-.04-.04-.08 0-.12l.12.06a.668.668 0 01-.06-.3c0-.12.08-.28.24-.48 0-.04-.02-.08-.06-.12.04.04.12.02.24-.06-.08-.08-.09-.15-.03-.21s.07-.13.03-.21l-.18.09c-.12.06-.25.12-.39.18s-.26.1-.36.12c-.1.02-.13-.01-.09-.09-.08 0-.14.04-.18.12-.04.08-.14.08-.3 0 0-.12.03-.21.09-.27.06-.06.05-.13-.03-.21-.08-.04-.11-.05-.09-.03l-.018-.018-.072-.072c-.08-.08-.06-.1.06-.06.12.04.12.02 0-.06-.12 0-.23.06-.33.18s-.19.2-.27.24c0-.12.07-.28.21-.48.14-.2.27-.34.39-.42-.24.04-.44.11-.6.21-.16.1-.34.25-.54.45-.08-.12-.07-.2.03-.24.1-.04.15-.14.15-.3-.28.36-.52.49-.72.39-.2-.1-.39-.22-.57-.36-.18-.14-.36-.21-.54-.21-.18 0-.4.24-.66.72s-.56 1.31-.9 2.49c-.34 1.18-.77 2.89-1.29 5.13.04.04.07.03.09-.03.02-.06.03-.05.03.03-.2.92-.44 1.86-.72 2.82-.28.96-.48 1.82-.6 2.58-.36 2.32-.67 4.28-.93 5.88-.26 1.6-.5 3.01-.72 4.23-.22 1.22-.4 2.33-.54 3.33s-.27 2.06-.39 3.18-.23 2.37-.33 3.75-.21 3.05-.33 5.01c0 .52.03 1.06.09 1.62s.05 1.12-.03 1.68c-.08.04-.12.03-.12-.03s-.04-.09-.12-.09c0 .04.01.06.03.06.02 0 .03.02.03.06l.24 3.06-.065.007c-.077.02-.115.077-.115.173 0 .04.01.12.03.24.02.12.04.25.06.39.02.14.04.26.06.36.02.1.03.13.03.09 0 .12.04.26.12.42.04-.32.05-.61.03-.87-.02-.26-.03-.55-.03-.87.08.12.11.23.09.33-.02.1-.03.23-.03.39l.12.36c.04.12.06.22.06.3.08.08.12.19.12.33s.08.25.24.33c.04 0 .05-.03.03-.09-.02-.06.01-.09.09-.09.08.2.13.43.15.69.02.26.11.45.27.57.04-.2.02-.36-.06-.48s-.1-.32-.06-.6c.08 0 .13-.01.15-.03.02-.02.05-.03.09-.03.08.12.12.27.12.45s.1.31.3.39c0-.16.02-.22.06-.18.08.08.12.15.12.21s.04.11.12.15c.04-.2.03-.39-.03-.57a1.79 1.79 0 01-.09-.57c-.08-.32-.13-.66-.15-1.02-.02-.36-.05-.7-.09-1.02.12.32.18.68.18 1.08s.08.74.24 1.02c0-.2-.02-.38-.06-.54-.04-.16-.04-.34 0-.54l.12.72c.04.24.06.48.06.72.08.12.23.24.45.36s.37.2.45.24c-.08-.32-.24-.6-.48-.84s-.34-.48-.3-.72c.08-.04.11-.08.09-.12a.418.418 0 01-.03-.18c.08.16.24.34.48.54s.4.38.48.54c.04-.36.05-.75.03-1.17-.02-.42-.01-.81.03-1.17v.005l.003.032zM18.62 27.38l.113-.157c.071-.102.134-.2.187-.293.08-.14.16-.23.24-.27.08.04.13.03.15-.03.02-.06.05-.09.09-.09.48-.56.93-1.04 1.35-1.44.42-.4.85-.88 1.29-1.44.08 0 .16-.06.24-.18.08-.12.16-.22.24-.3h.36l.24-.24c.08-.08.12-.1.12-.06.08-.12.2-.25.36-.39.16-.14.28-.23.36-.27.68-.2 1.01.09.99.87-.02.78-.29 1.97-.81 3.57-.28 1.04-.58 1.97-.9 2.79-.32.82-.58 1.62-.78 2.4-.2.78-.33 1.56-.39 2.34-.06.78.03 1.63.27 2.55.08.36.23.68.45.96.22.28.43.58.63.9h.06v.18c.2-.08.37-.07.51.03s.31.17.51.21l-.013.068c-.024.142-.01.17.043.082.06-.1.05-.05-.03.15-.04.04-.08.05-.12.03-.04-.02-.1.01-.18.09.36.12.71.09 1.05-.09.34-.18.67-.21.99-.09-.16.08-.32.12-.48.12-.16 0-.34.08-.54.24.2.04.4.01.6-.09.2-.1.4-.17.6-.21.32-.2.64-.32.96-.36.32-.04.62-.14.9-.3l-.24-.06h.24c.04-.2.1-.34.18-.42a.94.94 0 01.24-.18c0 .16.03.2.09.12.06-.08.11-.16.15-.24.12 0 .19-.03.21-.09.02-.06.07-.09.15-.09 0 .08.03.1.09.06.06-.04.13-.11.21-.21.08-.1.16-.18.24-.24.08-.06.16-.07.24-.03v-.3c.04.16.08.21.12.15.04-.06.1-.11.18-.15l.114-.09c.144-.112.256-.192.336-.24.1-.06.21-.13.33-.21h.12v-.06l.173-.173.097-.097c.1-.1.21-.17.33-.21-.08 0-.04-.06.12-.18v.06l-.06.06v.06c.04-.08.1-.12.18-.12 0-.04.03-.06.09-.06s.09-.02.09-.06v-.06c.08-.12.15-.25.21-.39s.13-.21.21-.21v.18c0 .08.02.12.06.12.08-.48.24-.64.48-.48 0-.08.05-.17.15-.27.071-.071.107-.077.107-.015l-.004.038.017-.023c.02-.02.03-.05.03-.09h.06c.12-.08.2-.17.24-.27.04-.1.06-.17.06-.21.24-.16.39-.28.45-.36.06-.08.11-.15.15-.21.04-.06.08-.15.12-.27.04-.12.18-.32.42-.6.04 0 .05-.03.03-.09-.02-.06-.01-.07.03-.03.2-.08.35-.21.45-.39.1-.18.23-.31.39-.39.4-.48.72-.86.96-1.14.24-.28.45-.56.63-.84.18-.28.37-.59.57-.93.2-.34.46-.79.78-1.35l-.008-.004-.06-.03-.052-.026v-.12c0-.04.01-.07.03-.09.02-.02.03-.07.03-.15-.04 0-.06-.02-.06-.06 0 .12-.04.14-.12.06l.24-.3c-.24.12-.44.34-.6.66-.16.32-.3.52-.42.6-.08-.2-.04-.44.12-.72.16-.28.2-.56.12-.84l-.36.9h-.06c-.2.32-.33.47-.39.45h-.029c-.063.014-.164.124-.301.33h-.06c-.08.16-.18.3-.3.42s-.22.28-.3.48h-.18c-.08.24-.18.45-.3.63s-.26.35-.42.51c-.24.36-.41.59-.51.69-.1.1-.18.17-.24.21-.06.04-.13.1-.21.18-.08.08-.24.26-.48.54l-1.32 1.08-.36.36-.06.03c-.04.02-.14.11-.3.27-.04-.04-.06-.03-.06.03s-.04.09-.12.09c-.2.24-.41.44-.63.6-.22.16-.43.32-.63.48h-.18l-.18.18c0-.08-.08-.06-.24.06-.2.12-.43.26-.69.42-.26.16-.52.29-.78.39-.26.1-.5.13-.72.09-.22-.04-.41-.2-.57-.48-.12-.64-.12-1.28 0-1.92.2-.92.4-1.65.6-2.19.2-.54.4-1.05.6-1.53.2-.48.41-1 .63-1.56.22-.56.47-1.32.75-2.28.2-.44.4-.95.6-1.53.2-.58.34-1.13.42-1.65 0-.2.03-.44.09-.72.06-.28.05-.46-.03-.54.08-.2.11-.35.09-.45-.02-.1-.05-.23-.09-.39.04-.08.05-.2.03-.36-.02-.16-.03-.36-.03-.6a.753.753 0 01-.3-.18c-.08-.08-.12-.28-.12-.6h-.06l-.06.06v-.06c-.04 0-.06-.02-.06-.06l-.06-.12c-.2-.08-.3-.16-.3-.24l.06-.18a4.874 4.874 0 01-.097-.034l-.24-.09-.143-.056c-.2-.08-.36-.08-.48 0-.12-.24-.28-.31-.48-.21-.2.1-.4.11-.6.03-.08.08-.15.11-.21.09a.665.665 0 00-.21-.03c-.76.16-1.42.44-1.98.84-.56.4-1.22.84-1.98 1.32-.2.2-.39.35-.57.45-.18.1-.39.21-.63.33-.2.36-.52.7-.96 1.02-.44.32-.76.62-.96.9l-.72.96.48-3 .12-.72.18-1.5c.08-.32-.02-.59-.3-.81-.28-.22-.6-.45-.96-.69-.12 0-.23-.01-.33-.03-.1-.02-.23-.07-.39-.15-.2.08-.33.1-.39.06-.06-.04-.17-.06-.33-.06-.2.16-.41.27-.63.33-.22.06-.43.13-.63.21-.2.08-.4.22-.6.42-.2.2-.38.52-.54.96-.08 0-.19.17-.33.51-.14.34-.23.51-.27.51-.04.4-.04.63 0 .69.04.06.02.27-.06.63-.04 0-.08.02-.12.06v.24c0 .08-.01.16-.03.24-.02.08-.03.16-.03.24l-.54 2.16-.48 2.82c-.08.44-.15.85-.21 1.23s-.15.73-.27 1.05l-.3 1.2c0 .08.02.16.06.24.04.08.04.16 0 .24l-.6 2.88c0 .04-.08.06-.24.06 0 .12.04.16.12.12.08-.04.12-.04.12 0-.16.56-.25 1.07-.27 1.53-.02.46-.03.91-.03 1.35.16 0 .26.01.3.03.04.02.1.03.18.03.04 0 .06-.02.06-.06 0-.08.02-.12.06-.12.08 0 .12.02.12.06 0 .04.02.06.06.06.28-.32.51-.47.69-.45.18.02.35.11.51.27.2-.08.36-.13.48-.15.12-.02.22-.07.3-.15.04.2.1.26.18.18l.3-.54c.08.08.11.13.09.15-.02.02.01.03.09.03l.113-.113c.045-.045.047-.117.007-.217a.318.318 0 010-.27c.08-.04.11-.02.09.06-.02.08-.01.08.03 0 .04 0 .04-.01 0-.03-.04-.02-.02-.03.06-.03l.36.24c-.08-.12-.1-.23-.06-.33.04-.1.1-.23.18-.39h.18c.12-.12.18-.26.18-.42.16 0 .37-.34.63-1.02.26-.68.5-1.44.72-2.28.22-.84.41-1.65.57-2.43l.3-1.47-.009.045.006-.012a.14.14 0 00.003-.033zm23.22 1.8c.04-.04.06-.12.06-.24.04-.2.11-.33.21-.39.1-.06.19-.17.27-.33l.3-.18c.4-.68.77-1.24 1.11-1.68.34-.44.64-.79.9-1.05s.5-.49.72-.69c.22-.2.43-.4.63-.6l-.06-.06c.08-.04.24-.06.48-.06-.04 0-.06-.02-.06-.06v-.12l2.04-1.32h.06c.08-.12.16-.19.24-.21.08-.02.18-.05.3-.09l.077-.077.043-.043c.2-.08.39-.1.57-.06.18.04.37.02.57-.06l-.06-.12c.28.32.13.83-.45 1.53-.58.7-1.35 1.44-2.31 2.22-.96.78-1.97 1.52-3.03 2.22-1.06.7-1.93 1.19-2.61 1.47zm16.62 3.36c.2-.16.36-.37.48-.63s.26-.51.42-.75c-.4.36-.7.82-.9 1.38zm-1.02 1.62c0-.12.06-.28.18-.48 0 .04-.01.07-.03.09-.02.02-.03.05-.03.09l.48-.6c.16-.2.28-.44.36-.72-.12.12-.22.3-.3.54-.08.24-.22.4-.42.48 0-.04-.02-.04-.06 0 0 .08-.06.17-.18.27s-.18.19-.18.27c.08-.08.14-.06.18.06zm-1.98 2.94c.04-.04.12-.16.24-.36.12-.2.26-.42.42-.66.16-.24.3-.46.42-.66s.18-.32.18-.36l-.21.33c-.14.22-.29.45-.45.69-.16.24-.3.46-.42.66s-.18.32-.18.36zm-6.42 5.1c.48 0 .98-.1 1.5-.3v-.06c-.16 0-.31.02-.45.06-.14.04-.27.06-.39.06-.08.08-.18.1-.3.06-.12-.04-.24.02-.36.18zm-15.72 2.16c.08-.16.12-.37.12-.63s-.02-.47-.06-.63c-.04.12-.08.16-.12.12 0 .24-.01.47-.03.69-.02.22.01.37.09.45zm2.58 1.32l.09.038c.09.044.18.112.27.202.12.12.3.16.54.12.12 0 .23-.06.33-.18s.19-.24.27-.36c.08-.08.09-.11.03-.09-.06.02-.07-.01-.03-.09.08-.32.09-.55.03-.69a.69.69 0 01-.03-.45h.06L38 42.2c0 .04.04.1.12.18l1.2-6c0-.08-.01-.17-.03-.27-.02-.1.01-.19.09-.27.4.72.79 1.39 1.17 2.01.38.62.83 1.21 1.35 1.77 0 .04.08.06.24.06.04.08.09.13.15.15.06.02.09.07.09.15.48.12.84.33 1.08.63.24.3.58.51 1.02.63h.24c.08.04.15.08.21.12.06.04.13.08.21.12l.6.12c.2.04.42.1.66.18.28-.2.56-.22.84-.06.28.16.54.22.78.18.04-.08.13-.11.27-.09.14.02.25.03.33.03.32-.04.63-.11.93-.21.3-.1.59-.19.87-.27l.84-.36 1.26-.72c.08-.08.09-.1.03-.06-.06.04-.05.02.03-.06.44-.28.85-.62 1.23-1.02s.75-.78 1.11-1.14c-.12 0-.21.06-.27.18-.06.12-.15.18-.27.18.24-.32.4-.51.48-.57.08-.06.2-.27.36-.63h.06c.04-.12.14-.3.3-.54.16-.24.33-.49.51-.75s.34-.5.48-.72c.14-.22.21-.37.21-.45 0-.04.04-.08.12-.12l.84-1.56c.04.04.04.08 0 .12-.04.04-.04.06 0 .06.04-.08.08-.2.12-.36.04-.16.1-.2.18-.12.08-.2.18-.42.3-.66.12-.24.18-.46.18-.66l-.12.12c0-.04.02-.08.06-.12.04-.04.06-.08.06-.12-.08.08-.13.14-.15.18-.02.04-.07.06-.15.06.08-.2.17-.37.27-.51s.15-.27.15-.39l-.48.84c0 .04-.02.05-.06.03-.04-.02-.08-.01-.12.03-.12.04-.19.13-.21.27-.02.14-.07.25-.15.33.12-.4.24-.66.36-.78-.16.08-.26.2-.3.36a.89.89 0 01-.24.42c-.04-.08-.05-.15-.03-.21.02-.06.01-.09-.03-.09-.08 0-.13.04-.15.12-.02.08-.05.06-.09-.06l-.36.6h-.06c-.24.24-.45.52-.63.84-.18.32-.39.6-.63.84-.16.12-.33.32-.51.6-.18.28-.37.57-.57.87-.2.3-.38.58-.54.84-.16.26-.3.45-.42.57-.2.2-.38.37-.54.51-.16.14-.32.31-.48.51-.2.16-.42.33-.66.51-.24.18-.5.37-.78.57-.28.16-.55.32-.81.48-.26.16-.51.28-.75.36-.56.16-1.08.19-1.56.09s-.96-.23-1.44-.39c-.48-.44-.95-.98-1.41-1.62-.46-.64-.85-1.3-1.17-1.98-.52-.8-.98-1.71-1.38-2.73-.4-1.02-.58-2.11-.54-3.27.6.04 1.45-.19 2.55-.69 1.1-.5 2.2-1.07 3.3-1.71 1.1-.64 2.05-1.25 2.85-1.83.8-.58 1.18-.93 1.14-1.05.44-.2.86-.65 1.26-1.35.4-.7.66-1.41.78-2.13s.07-1.35-.15-1.89c-.22-.54-.73-.77-1.53-.69l-.06.06c-.08 0-.15.01-.21.03-.06.02-.11.03-.15.03 0-.04.02-.06.06-.06.04 0 .02-.02-.06-.06 0 .04-.02.06-.06.06-.08-.04-.1-.06-.06-.06.04 0 .06-.04.06-.12-.36-.16-.62-.18-.78-.06-.04-.04-.08-.06-.12-.06-.04.04-.04.07 0 .09.04.02.04.03 0 .03-.36.08-.67.2-.93.36-.26.16-.55.32-.87.48-.16.16-.35.27-.57.33-.22.06-.41.17-.57.33l-.66.24c-.12.08-.24.19-.36.33s-.22.23-.3.27c0 .08-.02.14-.06.18-1.04.76-1.85 1.48-2.43 2.16-.58.68-1.31 1.46-2.19 2.34.12-.72.3-1.55.54-2.49.24-.94.48-1.9.72-2.88s.49-1.95.75-2.91c.26-.96.49-1.86.69-2.7.04 0 .05-.01.03-.03-.02-.02-.01-.03.03-.03a11 11 0 01.15-.63l.03-.09.03-.09.024-.073.043-.13c.036-.104.083-.247.143-.427.2-.68.41-1.43.63-2.25.22-.82.43-1.51.63-2.07.08-.4.21-.81.39-1.23.18-.42.33-.81.45-1.17.16-.24.26-.5.3-.78.04-.28.06-.56.06-.84-.2-.32-.42-.63-.66-.93-.24-.3-.52-.53-.84-.69 0-.08-.01-.12-.03-.12-.02 0-.03-.02-.03-.06-.12-.08-.28-.14-.48-.18-.2-.04-.36-.08-.48-.12-.16.08-.3.1-.42.06-.12-.04-.28-.04-.48 0-.44.08-.79.32-1.05.72-.26.4-.55.72-.87.96.04.36 0 .65-.12.87-.12.22-.22.43-.3.63-.24.8-.53 1.59-.87 2.37-.34.78-.61 1.57-.81 2.37l-.78 2.76-.098.294-.022.066v.06c-.04.08-.06.16-.06.24v.24c-.44 1.88-.87 3.56-1.29 5.04-.42 1.48-.71 3.02-.87 4.62-.08.56-.17 1.04-.27 1.44-.1.4-.19.78-.27 1.14-.04.2-.07.42-.09.66-.02.24-.09.48-.21.72v-.24c-.08.24-.13.5-.15.78-.02.28-.07.58-.15.9 0 .08-.05.14-.15.18-.1.04-.15.1-.15.18-.04.08-.05.17-.03.27.02.1.01.19-.03.27l-.06.12c-.08.2-.14.39-.18.57-.04.18-.04.35 0 .51-.08 1.04-.21 2.05-.39 3.03-.18.98-.35 1.97-.51 2.97 0 .12-.01.23-.03.33-.02.1-.05.21-.09.33 0 .04-.02.06-.06.06l-.06.06h-.06l.06.06c0 .2.02.34.06.42l-.06-.06c-.04.08-.08.18-.12.3-.04.12-.06.24-.06.36l.06-.06c0 .08.01.12.03.12.02 0 .01.04-.03.12-.12 0-.16.04-.12.12.04.08.04.16 0 .24.08 0 .1-.02.06-.06-.04-.04-.02-.08.06-.12 0 .12-.04.24-.12.36l-.24.36c.08.04.14.04.18 0 .04-.04.08-.06.12-.06.04.2.05.38.03.54-.02.16-.03.32-.03.48l-.3.12v-.18c-.08.08-.12.19-.12.33v.39c.08 0 .12-.02.12-.06 0 .28.01.54.03.78.02.24-.01.46-.09.66.16.2.19.45.09.75s-.07.53.09.69h-.12c.12.12.17.22.15.3-.02.08.01.16.09.24.08.12.18.22.3.3.16 0 .26.02.3.06.08.16.11.29.09.39-.02.1.07.19.27.27.24.08.46.08.66 0 .04.08.18.08.42 0-.24 0-.36-.08-.36-.24.04-.08.1-.12.18-.12.08 0 .14-.02.18-.06v-.12c0-.08.01-.12.03-.12.02 0 .05-.04.09-.12zM66.68 27.2c.56-.28 1.16-.52 1.8-.72.64-.2 1.34-.36 2.1-.48v.12c-.56.08-1.02.18-1.38.3-.36.12-.78.22-1.26.3-.2.12-.4.23-.6.33-.2.1-.42.15-.66.15zm-9 16.86c-.36 0-.62-.01-.78-.03-.16-.02-.4-.13-.72-.33-.04-.04-.08-.03-.12.03-.04.06-.06.03-.06-.09-.44-.24-.74-.52-.9-.84.04-.16-.04-.34-.24-.54 0 .08.03.16.09.24.06.08.05.16-.03.24a.684.684 0 01-.21-.57c.02-.22-.01-.45-.09-.69-.04.08-.04.16 0 .24.04.08.04.18 0 .3-.16-.24-.2-.48-.12-.72.04.04.06.1.06.18.08-.04.1-.09.06-.15-.04-.06-.04-.11 0-.15.12.08.18.22.18.42 0 .2.08.36.24.48l-.3-1.02c.04.04.08.04.12 0 0-.08-.02-.12-.06-.12-.04 0-.02-.04.06-.12-.08 0-.12.02-.12.06 0-.2.06-.39.18-.57.12-.18.2-.37.24-.57-.16.16-.26.32-.3.48-.08-.04-.09-.11-.03-.21.06-.1.13-.17.21-.21.08-.44.22-.8.42-1.08v.18l.18-.42.3-.6c.08-.16.22-.3.42-.42.04 0 .06.02.06.06.8-.96 1.58-1.86 2.34-2.7.76-.84 1.66-1.62 2.7-2.34.08.2.14.45.18.75.04.3.1.57.18.81.08.36.1.6.06.72 0 .16.02.34.06.54.04.2.06.4.06.6l.18.36c0 .32-.01.66-.03 1.02-.02.36-.07.66-.15.9 0-.12-.02-.2-.06-.24 0-.08.02-.18.06-.3.04-.12.06-.28.06-.48-.04 0-.06.02-.06.06 0 .04-.02.06-.06.06l-.12 1.02c-.04.4-.14.82-.3 1.26-.04.48-.24.92-.6 1.32l-.06.24c-.16.28-.33.55-.51.81s-.37.49-.57.69c-.32.28-.63.57-.93.87-.3.3-.69.49-1.17.57zm1.86-12.54h-.12c-.12.08-.2.15-.24.21-.04.06-.1.11-.18.15 0-.04.01-.06.03-.06.02 0 .03-.02.03-.06l-1.2 1.08c-.56.48-1.02.96-1.38 1.44-.12.04-.2.1-.24.18-.04.08-.12.14-.24.18 0 .04-.02.08-.06.12-.2.2-.4.45-.6.75-.2.3-.4.59-.6.87h-.12c-.04.04-.08.06-.12.06-.16.2-.3.43-.42.69-.12.26-.28.45-.48.57-.16.32-.3.54-.42.66-.04.28-.2.58-.48.9-.04.08-.08.21-.12.39-.04.18-.06.35-.06.51-.04.04-.06.12-.06.24-.04.2-.08.37-.12.51-.04.14-.1.29-.18.45v.06c-.08.28-.1.51-.06.69.04.18.04.39 0 .63.04 0 .06-.02.06-.06 0-.04.02-.02.06.06l.06.78-.06-.12c0 .16.04.24.12.24l.24.6c.08.2.22.36.42.48l-.18.18c.24.32.58.54 1.02.66-.04 0 .01.03.15.09.14.06.19.09.15.09.24.12.44.18.6.18.16 0 .4.04.72.12.16 0 .29.01.39.03.1.02.23.03.39.03.32.04.64.04.96 0 .32-.04.66-.1 1.02-.18h.24c.04-.12.12-.18.24-.18.2-.08.41-.16.63-.24.22-.08.39-.16.51-.24h.12l.06-.06c.2-.08.36-.16.48-.24.12-.08.28-.16.48-.24.04 0 .06-.06.06-.18.2-.04.36-.11.48-.21.12-.1.28-.19.48-.27h.06a.85.85 0 00.36-.27c.12-.14.22-.25.3-.33h.06l.24-.24-.18.12c.16-.16.33-.35.51-.57.18-.22.33-.43.45-.63-.24.32-.47.59-.69.81l-.63.63c-.08 0-.12-.02-.12-.06-.12.2-.26.34-.42.42l-.36.18-.6.3c.24-.2.5-.4.78-.6.28-.2.54-.4.78-.6.08.04.12.04.12 0s.04-.08.12-.12h-.06c.2-.04.38-.18.54-.42l.48-.72c.16-.24.31-.47.45-.69.14-.22.29-.33.45-.33l-.78 1.14c.12 0 .24-.1.36-.3a.323.323 0 00-.052.004l-.034.01.626-.854h.12c0-.04-.02-.06-.06-.06-.04 0-.06-.04-.06-.12.08-.2.16-.38.24-.54.08-.16.14-.38.18-.66-.08.08-.12.18-.12.3s-.06.22-.18.3l.256-.731.014.026c.01.015.023.031.037.049l.053.056c0-.08.02-.14.06-.18.04-.04.02-.08-.06-.12v.06a.323.323 0 00-.052.004l-.017.005.129-.369c.064.032.09.058.077.077l-.017.013c-.04.02-.04.07 0 .15.08-.24.12-.42.12-.54h-.06c0-.04.04-.1.12-.18v-.12c0-.04-.01-.06-.03-.06-.02 0-.01-.04.03-.12 0-.12.03-.23.09-.33s.09-.19.09-.27c.08-.12.11-.25.09-.39-.02-.14.03-.21.15-.21 0 .2.04.32.12.36.04-.4.05-.78.03-1.14-.02-.36-.01-.74.03-1.14.04.12.04.28 0 .48-.04.2-.02.34.06.42 0-1.04-.12-1.98-.36-2.82-.24-.84-.56-1.62-.96-2.34.04 0 .07-.01.09-.03.02-.02.01-.03-.03-.03-.04.04-.08.04-.12 0 .08-.12.21-.21.39-.27.18-.06.33-.15.45-.27h-.18c.08-.04.15-.07.21-.09.06-.02.11-.11.15-.27.68-.36 1.39-.7 2.13-1.02.74-.32 1.53-.6 2.37-.84.08-.16.21-.25.39-.27.18-.02.35-.07.51-.15.08 0 .13-.02.15-.06.02-.04.07-.06.15-.06.16-.04.3-.07.42-.09.12-.02.2-.09.24-.21-.12.12-.38.18-.78.18.2-.2.44-.31.72-.33.28-.02.52-.11.72-.27.04.08.06.1.06.06 0-.04.04-.06.12-.06.24-.08.5-.14.78-.18.28-.04.64-.08 1.08-.12-.08 0-.12-.04-.12-.12.2-.08.44-.12.72-.12h.84a.748.748 0 00-.33-.06c-.14 0-.23-.04-.27-.12.04-.04.08-.04.12 0 .04.04.06.02.06-.06s-.03-.12-.09-.12-.09-.02-.09-.06c.04-.08.09-.12.15-.12s.13-.02.21-.06l-.06-.12c-.24-.08-.46-.13-.66-.15-.2-.02-.46-.03-.78-.03h-1.68c-.16.04-.36.08-.6.12-.24.04-.44.06-.6.06-.04 0-.1.02-.18.06-1.52.32-2.88.71-4.08 1.17-1.2.46-2.38.97-3.54 1.53h-.12c-.08 0-.13.02-.15.06-.02.04-.07.04-.15 0-.28-.36-.53-.75-.75-1.17a4.53 4.53 0 00-.81-1.11l-.24-.36-1.26-1.86c-.2-.44-.4-.95-.6-1.53-.2-.58-.12-1.11.24-1.59.28-.48.6-.89.96-1.23.36-.34.68-.69.96-1.05.16-.08.27-.16.33-.24.06-.08.19-.12.39-.12.2-.12.46-.21.78-.27.32-.06.58-.01.78.15 0 .04.01.06.03.06.02 0 .01.04-.03.12.24 0 .41.1.51.3.1.2.13.38.09.54.08.96-.12 1.84-.6 2.64-.08.08-.02.19.18.33.2.14.34.25.42.33.2.08.41.08.63 0 .22-.08.45-.12.69-.12v-.18c.08-.08.15-.19.21-.33s.17-.21.33-.21c.16-.12.32-.22.48-.3.16-.08.28-.18.36-.3 0-.04.06-.22.18-.54.08-.24.18-.5.3-.78s.18-.56.18-.84c-.04-.36-.11-.73-.21-1.11-.1-.38-.25-.63-.45-.75-.12-.16-.26-.3-.42-.42-.16-.12-.32-.22-.48-.3a4.22 4.22 0 01-.36-.27c-.12-.1-.3-.15-.54-.15-.08-.08-.15-.11-.21-.09-.06.02-.13.03-.21.03-.04 0-.07-.01-.09-.03-.02-.02-.05-.03-.09-.03h-.36c-.2-.04-.4-.05-.6-.03l-.2.01c-.133 0-.267-.013-.4-.04-.24.08-.49.13-.75.15-.26.02-.53.05-.81.09-.88.28-1.75.64-2.61 1.08-.86.44-1.61.92-2.25 1.44-.12.24-.29.45-.51.63-.22.18-.39.39-.51.63-.08.12-.16.18-.24.18-.16.28-.3.63-.42 1.05-.12.42-.14.85-.06 1.29.04.6.17 1.17.39 1.71s.49 1.06.81 1.56c.32.5.66.99 1.02 1.47s.66.96.9 1.44c.32.4.61.79.87 1.17.26.38.49.79.69 1.23l-.052.053c.027-.02.064-.017.112.007.08.08.1.14.06.18-.04.04-.02.06.06.06-.08.08-.13.09-.15.03-.02-.06-.05-.05-.09.03v.18l-.36.36v-.18c-.12.12-.16.18-.12.18h.06l-.12.06zm18.9 4.08c-.12.04-.16 0-.12-.12.04-.12-.04-.18-.24-.18h-.66c-.2-.12-.35-.27-.45-.45a.864.864 0 00-.45-.39c-.04.04-.1.06-.18.06-.04 0-.04-.1 0-.3.04-.2.04-.32 0-.36l.06-.36c.2-.92.48-1.68.84-2.28.36-.6.7-1.26 1.02-1.98 0-.12.03-.21.09-.27.06-.06.09-.17.09-.33l.033.033.027.027c.2-.12.33-.34.39-.66s.19-.58.39-.78c.24-.44.46-.8.66-1.08s.4-.62.6-1.02l-.54.72h-.06c.64-1.04 1.29-2.05 1.95-3.03.66-.98 1.45-1.87 2.37-2.67l.9-.66c0 .08-.03.13-.09.15-.06.02-.09.07-.09.15l.66-.66c.04.08.08.1.12.06.04-.04.1-.06.18-.06.08.08.12.09.12.03v.03c.08-.04.11-.09.09-.15-.02-.06.01-.09.09-.09.2.16.33.37.39.63s.19.49.39.69c-.04.16-.03.32.03.48.06.16.05.34-.03.54 0 .12.01.2.03.24.02.04.03.1.03.18-.04.44-.08.92-.12 1.44-.04.52-.16 1-.36 1.44-.08.08-.09.13-.03.15.06.02.07.07.03.15-.2.8-.48 1.56-.84 2.28-.36.72-.74 1.46-1.14 2.22-.2.24-.38.53-.54.87-.16.34-.38.63-.66.87-.28.6-.61 1.08-.99 1.44-.38.36-.79.76-1.23 1.2-.04 0-.07.03-.09.09-.02.06-.07.11-.15.15-.24.2-.48.37-.72.51s-.46.27-.66.39c-.12.08-.22.17-.3.27-.08.1-.16.17-.24.21-.08.04-.16.05-.24.03-.08-.02-.14-.01-.18.03-.04 0-.1.04-.18.12zm3.42-12.36c.12-.08.2-.18.24-.3.04-.12.12-.2.24-.24 0-.12.01-.2.03-.24.02-.04.03-.08.03-.12.08.04.17.01.27-.09.1-.1.15-.21.15-.33-.52.4-.84.84-.96 1.32zm-1.32 1.86c.08 0 .14-.02.18-.06l1.14-1.8-1.32 1.86zm-9.78 20.43c-.08.02-.14-.21-.18-.69.08-1.24.23-2.51.45-3.81.22-1.3.41-2.65.57-4.05.08-.52.18-1.02.3-1.5l.36-1.44c0-.32.06-.64.18-.96.04-.16.06-.28.06-.36 0-.08.04-.14.12-.18.04.08.05.19.03.33-.02.14-.05.25-.09.33 0 .16-.02.29-.06.39-.04.1-.04.19 0 .27l-.06.12c-.04 0-.07.06-.09.18-.02.12.01.18.09.18l-.24 1.26c0-.04-.01-.06-.03-.06-.02 0-.03-.02-.03-.06 0 .08-.02.16-.06.24-.04.08-.02.12.06.12l-.12.96c-.08 0-.13.01-.15.03-.02.02-.05.03-.09.03.04.04.03.08-.03.12l-.028.024c-.025.032-.006.064.058.096.04 0 .07-.01.09-.03.02-.02.07-.03.15-.03l-.3 1.5v-.3c-.04.12-.07.22-.09.3-.02.08-.03.16-.03.24l.06-.06-.18 2.04c-.08.04-.14.17-.18.39-.04.22-.04.33 0 .33.04-.04.06-.08.06-.12a15.386 15.386 0 01-.12 1.92c0-.04-.02-.06-.06-.06v.24c0-.04.01-.06.03-.06.02 0 .03-.02.03-.06 0 .2-.03.48-.09.84s-.12.67-.18.93-.13.4-.21.42zm-.54 4.77c-.04-.04-.06-.1-.06-.18 0-.08-.04-.14-.12-.18.08-.08.1-.2.06-.36-.04-.16-.02-.3.06-.42 0 .2.03.39.09.57.06.18.05.37-.03.57zm25.2-21.84l.013-.034c.034-.11.06-.38.077-.806.02-.48-.03-.94-.15-1.38-.04 0-.09.04-.15.12-.06.08-.13.18-.21.3-.08.12-.17.22-.27.3-.1.08-.17.1-.21.06 0 .08-.07.19-.21.33-.14.14-.25.29-.33.45-.08.12-.18.22-.3.3a.68.68 0 00-.24.24c-.04.24-.28.6-.72 1.08-.44.48-.93.96-1.47 1.44-.54.48-1.07.92-1.59 1.32s-.88.66-1.08.78c-.08.04-.13.05-.15.03-.02-.02-.07-.01-.15.03l-.6.48-.3.18-.48.24-.42-.06c-.32.16-.62.24-.9.24l1.38-1.56v-.36h.06c.08-.24.12-.34.12-.3.64-.84 1.21-1.69 1.71-2.55.5-.86.89-1.83 1.17-2.91l-.12.24c0-.28.04-.48.12-.6 0-.08-.01-.12-.03-.12-.02 0 .03-.02.15-.06.2-.76.35-1.53.45-2.31.1-.78.19-1.55.27-2.31a.463.463 0 01.03-.48c.1-.16.11-.34.03-.54-.08.12-.13.25-.15.39-.02.14-.05.25-.09.33v-.51c0-.14-.02-.31-.06-.51-.08.04-.13 0-.15-.12-.02-.12-.07-.14-.15-.06 0-.2-.01-.36-.03-.48-.02-.12-.05-.24-.09-.36l-.022-.031a.659.659 0 01-.038-.269h.06l-.06-.12v-.06c-.2-.4-.5-.7-.9-.9a.694.694 0 00-.09-.15c-.02-.02-.03-.09-.03-.21-.08 0-.13-.02-.15-.06-.02-.04-.07-.06-.15-.06-.56-.32-1.19-.43-1.89-.33-.7.1-1.39.21-2.07.33l-1.98 1.44-.78.78c-.24.24-.5.46-.78.66-.12.2-.28.39-.48.57-.2.18-.36.33-.48.45-.04.04-.08.09-.12.15-.04.06-.14.13-.3.21-.08.28-.21.48-.39.6-.18.12-.37.28-.57.48.08-.32.18-.68.3-1.08s.28-.82.48-1.26c0-.08-.01-.19-.03-.33-.02-.14.05-.25.21-.33 0-.2.02-.42.06-.66.04-.24.06-.46.06-.66.04-.16.08-.31.12-.45.04-.14.06-.29.06-.45.04-.4-.05-.71-.27-.93-.22-.22-.43-.45-.63-.69-.2-.08-.39-.21-.57-.39-.18-.18-.41-.29-.69-.33-.12 0-.25.02-.39.06-.14.04-.25-.02-.33-.18-.16.16-.28.23-.36.21-.08-.02-.22.01-.42.09l-.96.9c-.04.08-.1.17-.18.27-.08.1-.16.19-.24.27l-.12.66-.57 2.28-.51 2.04c-.08.8-.18 1.55-.3 2.25s-.22 1.43-.3 2.19c-.4 1.24-.73 2.45-.99 3.63l-.81 3.69-.24.72v.69c0 .22-.04.45-.12.69-.32 1.36-.58 2.78-.78 4.26-.2 1.48-.38 2.86-.54 4.14a32.507 32.507 0 00.12 6.24l.006.184c.01.187.039.386.084.596.06.28.14.53.24.75.1.22.22.38.36.48.14.1.27.09.39-.03l.24.06v-.12c.2.04.33.1.39.18.06.08.17.18.33.3.08-.12.13-.19.15-.21.02-.02.03-.07.03-.15.12 0 .22.04.3.12.08.08.2.04.36-.12.12.16.22.21.3.15.08-.06.16-.03.24.09 0-.12.06-.2.18-.24l-.02-.029c-.018-.029-.052-.079-.1-.151.08-.08.14-.09.18-.03.04.06.1.11.18.15 0-.04-.02-.06-.06-.06-.04 0-.02-.02.06-.06 0-.12.02-.26.06-.42.08-.32.14-.5.18-.54.08 0 .08-.03 0-.09s-.08-.09 0-.09c0-.08.03-.08.09 0s.07.04.03-.12c.08-.08.09-.14.03-.18-.06-.04-.07-.06-.03-.06.08 0 .13.02.15.06.02.04.07.08.15.12-.16-.56-.23-1.12-.21-1.68.02-.56.03-1.16.03-1.8 0-.6.04-1.19.12-1.77.08-.58.12-1.13.12-1.65s.05-1.11.15-1.77c.1-.66.2-1.34.3-2.04.1-.7.21-1.38.33-2.04.12-.66.22-1.23.3-1.71.04-.08.11-.06.21.06.1.12.21.27.33.45.12.18.25.36.39.54.14.18.29.27.45.27.16 0 .24.06.24.18.32.04.68.08 1.08.12.4.04.68.1.84.18l1.62-.18v.06c.32-.08.5-.14.54-.18.28 0 .52-.08.72-.24l-.18.3h.06c.2-.12.43-.17.69-.15.26.02.49-.05.69-.21l.84-.21c.24-.06.46-.13.66-.21.6-.16 1.4-.54 2.4-1.14 1-.6 2.03-1.31 3.09-2.13 1.06-.82 2.05-1.67 2.97-2.55.92-.88 1.62-1.72 2.1-2.52zm-5.22-4.14l.3-2.46v-.06l-.06.06c-.08-.08-.1-.19-.06-.33.04-.14.08-.27.12-.39-.04-.12 0-.4.12-.84.04.2.05.4.03.6-.02.2-.03.46-.03.78-.04.28-.06.6-.06.96s-.04.64-.12.84c.08-.12.13-.29.15-.51.02-.22.05-.45.09-.69-.04.84-.16 1.6-.36 2.28-.2.68-.42 1.36-.66 2.04 0-.2.04-.41.12-.63.08-.22.16-.49.24-.81.08-.24.12-.46.12-.66.04-.04.06-.08.06-.12l-.06.06c0-.04.01-.06.03-.06.02 0 .03-.02.03-.06zm21.6 9.3c.04-.04.06-.08.06-.12 0-.04.04-.08.12-.12v-.18c.08-.16.33-.53.75-1.11.42-.58.88-1.2 1.38-1.86.5-.66.95-1.28 1.35-1.86.4-.58.64-.95.72-1.11.08-.04.11-.08.09-.12-.02-.04.01-.08.09-.12.08-.4.22-.72.42-.96.2-.24.36-.54.48-.9-.04-.08-.03-.15.03-.21s.07-.13.03-.21c-.2.16-.33.38-.39.66s-.21.5-.45.66c0-.08.02-.13.06-.15.04-.02.02-.05-.06-.09 0 .08-.02.14-.06.18-.04.04-.04.1 0 .18a.36.36 0 00-.24.24c-.04.12-.1.2-.18.24l.72-1.5c-.08-.04-.11-.06-.09-.06.02 0 .01-.02-.03-.06.28-.2.48-.44.6-.72l.36-.84h.12l.42-.78-.36.48c-.08-.2-.06-.34.06-.42.12-.08.2-.26.24-.54-.28.32-.52.64-.72.96-.2.32-.4.68-.6 1.08h-.12c0 .2-.06.38-.18.54 0-.08.01-.15.03-.21l.09-.27c-.08.04-.14.14-.18.3-.04.16-.06.22-.06.18-.04.08-.12.12-.24.12 0-.12.1-.32.3-.6h-.06c-.04-.04-.04-.1 0-.18.04-.08.02-.16-.06-.24.04-.08.11-.19.21-.33.1-.14.11-.25.03-.33a.8.8 0 00-.21.15c-.06.06-.11.09-.15.09l-.09.27c-.02.06-.03.13-.03.21-.08.16-.18.31-.3.45s-.22.29-.3.45c-.16.16-.29.38-.39.66-.1.28-.25.48-.45.6-.08-.08-.15-.05-.21.09s-.11.27-.15.39c-.2.2-.49.54-.87 1.02s-.78 1-1.2 1.56l-1.17 1.56c-.36.48-.6.78-.72.9-.2.44-.47.81-.81 1.11-.34.3-.63.61-.87.93-.24.12-.42.28-.54.48-.12.2-.32.36-.6.48-.04-.32-.09-.63-.15-.93-.06-.3-.05-.59.03-.87-.16-.96-.21-1.78-.15-2.46.06-.68.15-1.44.27-2.28.04-.44.08-.82.12-1.14.04-.32.12-.64.24-.96.08-.48.2-.97.36-1.47.16-.5.2-.99.12-1.47 0-.2.05-.47.15-.81.1-.34.15-.61.15-.81 0-.32-.1-.52-.3-.6-.12-.16-.18-.31-.18-.45s-.04-.23-.12-.27v.24c-.2-.08-.28-.19-.24-.33.04-.14 0-.27-.12-.39 0 .08.02.16.06.24.04.08 0 .14-.12.18-.04-.04-.04-.09 0-.15s.02-.09-.06-.09-.11.02-.09.06c.02.04.01.08-.03.12-.04-.08-.16-.16-.36-.24-.2-.08-.34-.04-.42.12-.08 0-.15-.01-.21-.03-.06-.02-.13-.05-.21-.09 0 .04.02.06.06.06.04 0 0 .02-.12.06-.16 0-.24.04-.24.12-.04 0-.08-.01-.12-.03a.418.418 0 00-.18-.03c0 .08.03.15.09.21s.05.13-.03.21c-.2-.08-.34-.04-.42.12-.08.16-.22.24-.42.24v.24c-.08.04-.12.04-.12 0s-.04-.06-.12-.06c-.12.56-.43 1.17-.93 1.83-.5.66-.91 1.29-1.23 1.89-.04 0-.06-.03-.06-.09s-.02-.03-.06.09c-.32.52-.66 1.06-1.02 1.62s-.76 1.08-1.2 1.56c-.12.36-.32.69-.6.99-.28.3-.52.65-.72 1.05-.4.52-.8 1.05-1.2 1.59-.4.54-.88 1.07-1.44 1.59-.08-1.12-.02-2.12.18-3 .2-.88.42-1.72.66-2.52 0-.16.04-.32.12-.48l.3-.6.3-.75c.12-.3.24-.55.36-.75l.06-.06c0-.04.01-.06.03-.06.02 0 .03-.02.03-.06.08-.2.13-.35.15-.45.02-.1.03-.19.03-.27l.78-1.56c0-.04.01-.06.03-.06.02 0 .03-.04.03-.12.68-1.4 1.64-2.74 2.88-4.02.12-.08.23-.15.33-.21s.19-.09.27-.09c.2-.04.41-.04.63 0 .22.04.43.1.63.18.32.08.57.18.75.3a3.102 3.102 0 001.2.48c.22.04.43.1.63.18.16.08.21.09.15.03s-.03-.07.09-.03c.08.04.15.08.21.12.06.04.11.06.15.06.2-.08.35-.12.45-.12h.45c.08-.08.18-.14.3-.18.12-.04.18-.1.18-.18 0-.08-.01-.14-.03-.18a.418.418 0 01-.03-.18c-.56-.32-1-.59-1.32-.81-.32-.22-.76-.49-1.32-.81-.2 0-.33-.07-.39-.21l-.042-.078a.466.466 0 00-.288-.192c-.12-.16-.25-.26-.39-.3-.14-.04-.27-.1-.39-.18-.16.04-.25.05-.27.03l-.09-.09c-.12 0-.21-.03-.27-.09a.288.288 0 00-.21-.09c.24 0 .21-.01-.09-.03-.3-.02-.69-.02-1.17 0s-.98.1-1.5.24c-.52.14-.9.37-1.14.69a15.89 15.89 0 00-3 3.12c-.2.16-.34.36-.42.6-.08.24-.18.46-.3.66-.32.52-.62 1.04-.9 1.56s-.56 1.06-.84 1.62c-.52 1.04-.97 2.2-1.35 3.48-.38 1.28-.65 2.56-.81 3.84-.04.36-.07.77-.09 1.23-.02.46-.01.91.03 1.35.04.44.12.83.24 1.17.12.34.3.59.54.75.2.08.43.16.69.24.26.08.49.16.69.24.24.04.47.08.69.12.22.04.49.04.81 0 .32 0 .63-.02.93-.06.3-.04.59-.12.87-.24.36-.12.69-.25.99-.39.3-.14.59-.31.87-.51v-.18c.44-.32.82-.71 1.14-1.17.32-.46.68-.91 1.08-1.35v-.12c.44-.56.83-1.08 1.17-1.56.34-.48.69-1.02 1.05-1.62.04.92.07 1.95.09 3.09.02 1.14.19 2.13.51 2.97.04.2.12.44.24.72.12.28.22.46.3.54.16.08.34.15.54.21s.36.19.48.39c.08 0 .14.02.18.06.04.04.1.06.18.06 0-.04.02-.06.06-.06.2.08.44.13.72.15.28.02.56-.01.84-.09.04 0 .06-.02.06-.06 0-.04.02-.04.06 0 .24-.08.32-.02.24.18.04-.08.08-.11.12-.09.04.02.1-.01.18-.09h-.12c.08-.04.17-.04.27 0s.17.02.21-.06h-.12v-.12c.44-.2.79-.43 1.05-.69.26-.26.53-.55.81-.87-.52.52-.98.92-1.38 1.2.04-.12.12-.21.24-.27.12-.06.22-.15.3-.27l.54-.54.091-.091.216-.216.053-.053.12-.3c.08-.16.2-.26.36-.3v-.12h.12c-.04-.04-.04-.13 0-.27s.12-.19.24-.15c-.08-.04-.06-.12.06-.24v.06c.04 0 .1-.04.18-.12l.357-.418-.177.178zm4.53 7.32c.42.12.91.14 1.47.06.64-.08 1.2-.22 1.68-.42.48-.2.94-.44 1.38-.72.2-.12.36-.2.48-.24.12-.04.18-.12.18-.24-.08.08-.22.17-.42.27-.2.1-.36.13-.48.09.16-.08.31-.17.45-.27s.29-.17.45-.21c0-.16.02-.24.06-.24.08-.08.24-.18.48-.3s.4-.28.48-.48c.04 0 .06-.04.06-.12.36-.28.68-.58.96-.9.28-.32.6-.6.96-.84l2.28-2.52c.24-.32.5-.63.78-.93.28-.3.52-.65.72-1.05.16-.16.36-.41.6-.75s.49-.71.75-1.11c.26-.4.52-.77.78-1.11.26-.34.49-.57.69-.69.2-.44.47-.85.81-1.23.34-.38.57-.77.69-1.17a28.45 28.45 0 00-1.2 1.56c-.08.28-.2.46-.36.54.12-.36.24-.63.36-.81.12-.18.26-.43.42-.75-.04-.08-.08-.06-.12.06-.04.12-.1.18-.18.18.08-.2.15-.35.21-.45.06-.1.19-.19.39-.27l.24-.54c0 .2.02.34.06.42.04-.08.06-.18.06-.3v-.24l1.08-1.8c.04-.04.06-.08.06-.12l-1.14 1.68c-.08 0-.15.04-.21.12-.06.08-.11.08-.15 0 .16-.2.28-.42.36-.66.08-.24.18-.46.3-.66.08-.16.16-.3.24-.42.08-.12.16-.26.24-.42-.36.44-.69.91-.99 1.41-.3.5-.65.91-1.05 1.23.04-.16.12-.3.24-.42-.08-.08-.08-.17 0-.27s.12-.25.12-.45c-.28.4-.55.83-.81 1.29-.26.46-.53.85-.81 1.17-.2.28-.46.64-.78 1.08-.32.44-.64.89-.96 1.35a44.654 44.654 0 01-1.62 2.19l-.06-.12v.18l-.3.12c-.08.12-.18.25-.3.39s-.22.31-.3.51c-.08.12-.19.24-.33.36s-.27.28-.39.48c-.32.44-.69.87-1.11 1.29l-1.29 1.29-1.68 1.62c-.48.12-.84.26-1.08.42-.44.24-.87.41-1.29.51-.42.1-.91.19-1.47.27l-.42-.66.06-.6-.18-1.68c0-1.6.21-3.12.63-4.56.42-1.44.87-2.76 1.35-3.96.32-.8.66-1.58 1.02-2.34.36-.76.82-1.48 1.38-2.16.16-.32.32-.58.48-.78.16-.2.34-.42.54-.66l.24-.12c.08-.04.16-.06.24-.06h.06c.2.32.24.6.12.84.2.08.26.3.18.66-.08.36-.08.66 0 .9 0 .04.02.12.06.24.04.12.1.22.18.3.08.08.23.17.45.27s.41.19.57.27l.84-.48c.28-.08.47-.27.57-.57.1-.3.19-.59.27-.87.08-.4.17-.77.27-1.11.1-.34.13-.71.09-1.11-.04-.2-.07-.41-.09-.63-.02-.22-.07-.45-.15-.69 0-.16-.03-.32-.09-.48-.06-.16-.13-.3-.21-.42a.725.725 0 00-.42-.42c-.2-.08-.34-.26-.42-.54-.04 0-.06-.01-.06-.03 0-.02-.04-.01-.12.03-.32-.32-.67-.5-1.05-.54-.38-.04-.73-.1-1.05-.18-.32 0-.6.04-.84.12-.24.08-.42.16-.54.24l-.6.24c-.32.08-.59.25-.81.51-.22.26-.51.49-.87.69 0 .04-.02.04-.06 0-.12.2-.26.39-.42.57-.16.18-.32.35-.48.51l-.42.66-.18.3c-1.12 1.52-2.08 3.28-2.88 5.28a20.97 20.97 0 00-1.38 3.54c-.36 1.24-.6 2.48-.72 3.72-.04.68-.06 1.37-.06 2.07v1.77c.12.8.37 1.53.75 2.19.38.66.93 1.17 1.65 1.53.2-.08.36-.06.48.06.48.04.93.12 1.35.24zm18.63-12.84c.12-.32.26-.71.42-1.17.16-.46.33-.93.51-1.41.18-.48.37-.94.57-1.38.2-.44.36-.8.48-1.08l.54-.78c.28-.24.52-.53.72-.87.2-.34.38-.63.54-.87.16-.2.29-.32.39-.36.1-.04.21-.08.33-.12.04.08.03.19-.03.33s-.05.27.03.39l-.42 2.28-.24.18c0 .12.06.2.18.24-.24.64-.53 1.19-.87 1.65a4.3 4.3 0 01-1.35 1.17c0 .04-.04.06-.12.06-.04 0-.06-.02-.06-.06-.08.2-.33.52-.75.96-.42.44-.71.72-.87.84zm-4.38 9.824c-.462-.372-.782-.806-.96-1.304-.2-.56-.3-1.12-.3-1.68l-.18-.66c0-.08.03-.18.09-.3s.05-.24-.03-.36c.04-.28.07-.56.09-.84.02-.28.07-.54.15-.78v-.06c.04-.12.06-.22.06-.3 0-.08.04-.16.12-.24 0-.08.01-.16.03-.24.02-.08.03-.16.03-.24 0-.16.01-.34.03-.54.02-.2.19-.34.51-.42.04.16.03.37-.03.63s-.09.49-.09.69c-.36 1.32-.54 2.58-.54 3.78 0 .48.09.9.27 1.26.18.36.37.76.57 1.2.04.04.09.12.15.24s.13.22.21.3h-.001l-.179-.136zm18.6-12.164l.064-.068c.067-.074.146-.172.236-.292a2.36 2.36 0 01.11-.14l.009-.008v-.037c-.003-.057-.009-.093-.018-.108l-.011-.007c-.02 0-.05.02-.09.06-.04.04-.07.06-.09.06-.02 0-.01-.04.03-.12l-.36.36c-.08 0-.14.07-.18.21-.04.14-.06.19-.06.15-.08-.2-.04-.38.12-.54.16-.16.26-.28.3-.36-.08.04-.04-.05.12-.27.16-.22.28-.37.36-.45.08 0 .12-.03.12-.09s.02-.11.06-.15h-.18l.12-.12c-.08.08-.16.08-.24 0l-.02.024-.1.126c-.08.1-.18.21-.3.33-.12.12-.24.22-.36.3l-.18.12c-.12.16-.26.1-.42-.18-.12.16-.22.32-.3.48-.08.16-.18.26-.3.3-.08.08-.16.18-.24.3-.08.12-.18.22-.3.3-.64.48-1.2.97-1.68 1.47s-.92.98-1.32 1.44l-1.2 1.38c-.4.46-.84.89-1.32 1.29-.08.04-.18.13-.3.27s-.24.27-.36.39v.12c-.04 0-.08-.02-.12-.06.04.2-.01.34-.15.42l-.1.056-.164.09-.066.034v-.06c-.12.28-.28.46-.48.54-.2.08-.38.2-.54.36h.06l-.18.18c-.2.36-.49.65-.87.87-.38.22-.73.45-1.05.69-.08 0-.13.02-.15.06-.02.04-.07.04-.15 0-.44.36-.9.69-1.38.99-.48.3-1 .51-1.56.63-.6-.28-.96-.76-1.08-1.44-.08-.48-.04-1 .12-1.56s.28-1.12.36-1.68c.08-.52.13-.88.15-1.08.02-.2.06-.35.12-.45.06-.1.14-.2.24-.3.1-.1.25-.33.45-.69.24-.16.59-.34 1.05-.54.46-.2.77-.36.93-.48a4.49 4.49 0 001.41-1.08c.38-.44.79-.82 1.23-1.14.08-.12.2-.23.36-.33.16-.1.26-.25.3-.45.28-.32.53-.7.75-1.14.22-.44.51-.88.87-1.32v-.12c.44-1.08.58-2.2.42-3.36-.16-1.16-.68-2.02-1.56-2.58v-.06c-.08 0-.13-.02-.15-.06-.02-.04-.07-.08-.15-.12-.04 0-.06.01-.06.03 0 .02-.04.03-.12.03l.06-.3c-.08-.04-.12-.04-.12 0s-.02.06-.06.06c-.16-.08-.28-.12-.36-.12-.08-.08-.15-.11-.21-.09-.06.02-.13-.01-.21-.09-.08-.04-.13-.08-.15-.12a.47.47 0 00-.09-.12c-.04.04-.08.06-.12.06h-.12c-.24-.04-.42-.04-.54 0-.2-.08-.36-.04-.48.12-.08-.04-.16-.07-.24-.09-.08-.02-.18-.03-.3-.03l-.48.24c-.16.08-.28.22-.36.42h-.18c-.36-.04-.58.1-.66.42-.08.2-.19.39-.33.57-.14.18-.27.35-.39.51-.4.44-.73.85-.99 1.23s-.49.83-.69 1.35c-.08.08-.15.16-.21.24-.06.08-.13.16-.21.24-.08.2-.15.39-.21.57-.06.18-.15.37-.27.57-.24.52-.43.98-.57 1.38-.14.4-.27.79-.39 1.17-.12.38-.26.76-.42 1.14-.16.38-.36.83-.6 1.35l.06.12c0 .04-.04.1-.12.18a5.01 5.01 0 00-.39 2.07c.02.7-.07 1.43-.27 2.19-.2 1.16-.2 2.15 0 2.97.2.82.56 1.55 1.08 2.19.36.2.53.38.51.54-.02.16.17.28.57.36.08 0 .19.02.33.06.14.04.29.06.45.06.36.2.7.28 1.02.24.32-.04.7.04 1.14.24.16-.04.27-.05.33-.03.06.02.11.03.15.03.56.08 1.07.04 1.53-.12.46-.16.91-.4 1.35-.72l-.053-.053c.635-.405 1.413-1.017 2.333-1.837.92-.82 1.83-1.7 2.73-2.64.9-.94 1.72-1.83 2.46-2.67.74-.84 1.27-1.48 1.59-1.92l.27-.36.03-.04a.554.554 0 00.018-.027l.003-.005.052-.035a.383.383 0 00.06-.06l.047-.073c.04-.08.1-.14.18-.18v-.12c0-.08.02-.16.06-.24.04-.08.12-.12.24-.12 0-.04.16-.18.48-.42l-.014.01.024-.067c.01-.034.02-.072.027-.112l.023-.131c.48-.32.86-.78 1.14-1.38z" fill="#FFFFFF" fill-rule="nonzero"/>
</svg>
